# xmcd
#
# Track frame offsets:
#	150
#	25444
#	43212
#	69998
#	90748
#	116308
#	137429
#	163458
#	190334
#	210499
#	228237
#	251298
#
# Disc length: 3559 seconds
#
# Revision: 0
# Processed by: cddbd v1.5.2PL0 Copyright (c) Steve Scherf et al.
# Submitted via: dBpowerAMP V4.0
#
DISCID=a00de50c
DTITLE=DJ Shers - PAC-MAN
DYEAR=2006
DGENRE=Pumping
TTITLE0=PACMAN
TTITLE1=Shake you ass
TTITLE2=To be play (DJ Steven Smile rmx)
TTITLE3=Automatic
TTITLE4=Blasting Beats
TTITLE5=Bumble - Bee
TTITLE6=Wienerwurst
TTITLE7=Stomp it
TTITLE8=Uno dos tres
TTITLE9=Shake you ass (Bass Bastards SG MIX)
TTITLE10=Boom Boom Boom (DJ Shers rmx)
TTITLE11=Poky Parlament
EXTD=
EXTT0=
EXTT1=
EXTT2=
EXTT3=
EXTT4=
EXTT5=
EXTT6=
EXTT7=
EXTT8=
EXTT9=
EXTT10=
EXTT11=
PLAYORDER=
